<?xml version="1.0" standalone="no"?>
<!DOCTYPE svg PUBLIC "-//W3C//DTD SVG 20010904//EN"
 "http://www.w3.org/TR/2001/REC-SVG-20010904/DTD/svg10.dtd">
<svg version="1.0" xmlns="http://www.w3.org/2000/svg"
 width="512.000000pt" height="512.000000pt" viewBox="0 0 512.000000 512.000000"
 preserveAspectRatio="xMidYMid meet">
<metadata>
Created by potrace 1.11, written by Peter Selinger 2001-2013
</metadata>
<g transform="translate(0.000000,512.000000) scale(0.100000,-0.100000)"
fill="#000000" stroke="none">
<path d="M2428 5115 c-2 -1 -38 -5 -80 -9 -43 -4 -83 -8 -90 -11 -7 -2 -32 -6
-56 -9 -58 -7 -202 -42 -282 -67 -553 -177 -1009 -567 -1270 -1087 -41 -83
-114 -263 -126 -312 -2 -8 -14 -58 -28 -110 -13 -52 -30 -122 -38 -154 -10
-48 -17 -60 -35 -62 -76 -12 -204 -83 -271 -152 -199 -203 -195 -540 8 -740
64 -64 163 -121 247 -142 41 -10 42 -12 53 -68 47 -229 92 -363 191 -567 96
-199 233 -392 394 -555 76 -78 100 -99 190 -175 17 -14 67 -51 113 -82 65 -45
82 -62 83 -82 1 -14 2 -156 3 -316 1 -271 2 -292 21 -324 25 -43 63 -71 106
-80 96 -20 409 93 565 204 28 20 52 31 58 26 36 -28 100 -35 361 -35 273 -1
323 3 381 30 31 15 33 14 81 -19 147 -106 361 -196 507 -213 57 -7 116 22 147
73 24 38 24 41 25 357 1 281 4 320 18 328 8 5 60 42 114 82 424 315 719 776
828 1289 7 34 24 119 24 122 0 1 17 5 38 7 20 3 69 21 107 39 126 61 237 195
278 334 18 64 22 197 6 261 -44 186 -187 338 -368 391 -57 17 -61 20 -67 53
-41 232 -138 501 -251 700 -268 470 -704 819 -1228 984 -69 22 -250 63 -310
71 -27 3 -66 8 -85 11 -38 5 -357 13 -362 9z m893 -1109 c138 -132 310 -237
482 -296 43 -15 86 -36 96 -46 10 -10 29 -28 42 -38 13 -11 85 -72 159 -135
74 -64 148 -127 164 -141 16 -14 51 -45 79 -70 l49 -45 -109 -41 c-59 -23
-115 -44 -123 -47 -10 -3 -32 15 -60 47 -160 185 -388 286 -635 281 -160 -4
-328 -57 -450 -143 -75 -53 -188 -172 -232 -245 -35 -58 -40 -63 -61 -56 -89
33 -198 32 -341 -3 -7 -2 -22 15 -34 37 -31 56 -74 112 -132 170 -27 28 -48
55 -46 60 1 6 -1 7 -5 3 -4 -4 -28 8 -53 26 -155 113 -400 174 -580 145 -97
-16 -116 -21 -193 -50 -123 -48 -244 -135 -333 -240 l-27 -33 -115 58 c-63 31
-114 58 -112 60 2 1 134 97 293 211 289 208 289 209 345 211 123 4 388 16 421
19 19 1 73 6 120 9 47 4 96 9 110 11 14 2 50 7 80 10 30 4 69 8 85 10 67 8
227 37 335 61 63 14 123 27 133 29 10 2 78 24 150 49 149 51 266 106 347 165
30 22 57 40 59 40 2 1 43 -37 92 -83z m-1543 -746 c102 -21 207 -80 303 -171
84 -81 187 -305 155 -340 -8 -9 -8 -10 3 -4 12 7 13 -10 8 -106 -8 -179 -57
-290 -182 -414 -115 -115 -262 -175 -430 -175 -232 0 -453 141 -551 351 -137
293 -26 639 256 797 133 74 276 94 438 62z m1881 -10 c173 -56 300 -166 375
-325 44 -92 60 -161 59 -265 0 -159 -54 -294 -164 -413 -152 -164 -369 -232
-582 -183 -224 52 -404 227 -461 447 -16 65 -20 197 -7 259 18 84 20 93 51
158 84 179 250 304 451 340 73 14 206 5 278 -18z m-2910 -208 l136 -67 -24
-80 c-34 -116 -39 -299 -10 -416 58 -240 210 -433 429 -545 30 -15 57 -29 60
-29 3 -1 36 -11 75 -23 146 -47 330 -46 480 3 287 94 494 325 555 620 16 81
20 233 6 292 -9 40 11 52 89 57 91 6 157 -16 139 -46 -17 -27 -13 -225 7 -314
59 -273 263 -508 519 -599 123 -44 313 -60 425 -36 28 6 60 12 71 15 12 2 56
19 97 36 224 93 400 286 470 515 29 93 36 149 32 260 -4 119 -9 154 -31 217
-8 22 -14 46 -14 53 0 7 39 27 88 45 48 18 130 49 182 69 91 36 97 37 146 26
251 -58 342 -364 163 -545 -62 -62 -132 -92 -244 -103 -98 -10 -114 -30 -130
-167 -3 -25 -7 -52 -10 -60 -2 -8 -6 -26 -9 -40 -8 -38 -13 -60 -30 -125 -96
-371 -345 -751 -652 -997 l-69 -55 -25 50 c-37 76 -65 92 -158 92 -111 0 -278
-62 -442 -164 -47 -29 -56 -32 -75 -20 -11 7 -40 24 -65 38 l-45 26 -320 0
c-313 -1 -321 -1 -363 -23 -24 -13 -52 -32 -63 -43 -19 -19 -20 -19 -112 34
-228 131 -402 186 -487 155 -37 -14 -78 -57 -91 -95 -6 -18 -14 -33 -17 -33
-4 0 -25 16 -46 35 -22 19 -42 35 -46 35 -9 0 -201 191 -240 239 -19 23 -43
53 -54 64 -40 47 -136 197 -183 287 -49 93 -129 281 -137 324 -3 11 -11 44
-20 71 -8 28 -17 61 -20 75 -2 14 -10 50 -16 80 -6 30 -13 78 -16 105 -10 90
-45 119 -154 127 -103 8 -194 65 -246 154 -35 60 -45 99 -45 177 1 82 32 155
93 217 69 69 131 93 250 97 57 2 70 -2 197 -65z m2105 -2244 c21 -33 21 -333
0 -365 -14 -23 -15 -23 -294 -23 -279 0 -280 0 -294 23 -11 17 -14 60 -14 185
0 148 2 166 19 183 18 18 37 19 294 19 274 0 275 0 289 -22z"/>
<path d="M1565 2961 c-82 -20 -163 -88 -206 -171 -18 -36 -23 -62 -23 -125 -1
-99 23 -156 92 -223 73 -71 164 -98 265 -80 242 44 336 340 163 514 -79 79
-187 110 -291 85z"/>
<path d="M3382 2951 c-212 -74 -275 -346 -117 -504 132 -131 348 -117 461 30
40 53 55 96 59 178 3 60 0 79 -24 130 -67 146 -231 218 -379 166z"/>
<path d="M3114 1725 c-16 -7 -47 -33 -69 -59 -77 -93 -220 -180 -344 -211 -85
-21 -159 -26 -165 -12 -3 8 -5 8 -5 1 -1 -9 -19 -8 -68 1 -148 29 -248 82
-364 193 -102 97 -133 108 -188 70 -67 -45 -66 -116 3 -188 85 -89 252 -210
291 -210 7 0 16 -4 19 -8 5 -8 114 -43 181 -58 17 -4 80 -8 140 -10 175 -4
338 45 493 150 84 56 185 155 208 204 40 84 -46 173 -132 137z"/>
</g>
</svg>
